<svg xmlns="http://www.w3.org/2000/svg" width="360.127" height="360.576" viewBox="0 0 360.127 360.576">
  <path id="Caminho_1087" data-name="Caminho 1087" d="M4583,1133.492s-.012-7.014,0-16.742c4.963-25.82,23.438-77.492,91.856-74.474,90.981,4.014,143.163,37.463,224.778,0,19.343-8.879,32.963-10.233,43.366-6.859.16.186,0,75.4,0,75.4v246.322s.039,9.119,0,9.113c-.006.006.036,12.054,0,12.01.623-.172-18.516,16.054-57.792-15.314s-168.085-46.182-215.515-7.489c-36.2,28.292-54.5,39.525-86.693,38.8,0-15.846-.127-79.046,0-79.266C4583.2,1314.888,4583,1133.492,4583,1133.492Z" transform="translate(-4582.943 -1033.722)" fill="#00d3b0"/>
</svg>
