<?xml version="1.0" encoding="utf-8"?>
<!-- Generator: Adobe Illustrator 22.1.0, SVG Export Plug-In . SVG Version: 6.00 Build 0)  -->
<svg version="1.1" id="Camada_1" xmlns="http://www.w3.org/2000/svg" xmlns:xlink="http://www.w3.org/1999/xlink" x="0px" y="0px"
	 viewBox="0 0 360.1 360.6" style="enable-background:new 0 0 360.1 360.6;" xml:space="preserve">
<style type="text/css">
	.st0{fill:url(#Caminho_1087_1_);}
</style>
<linearGradient id="Caminho_1087_1_" gradientUnits="userSpaceOnUse" x1="10.1481" y1="370.6281" x2="369.5692" y2="11.207">
	<stop  offset="0" style="stop-color:#00D38E"/>
	<stop  offset="1" style="stop-color:#00D6C0"/>
</linearGradient>
<path id="Caminho_1087" class="st0" d="M0.1,99.8c0,0,0-7,0-16.7C5,57.2,23.5,5.5,91.9,8.6c91,4,143.2,37.5,224.8,0
	c19.3-8.9,33-10.2,43.4-6.9c0.2,0.2,0,75.4,0,75.4v246.3c0,0,0,9.1,0,9.1c0,0,0,12.1,0,12c0.6-0.2-18.5,16.1-57.8-15.3
	S134.2,283,86.8,321.7C50.5,350,32.3,361.3,0.1,360.5c0-15.8-0.1-79,0-79.3C0.3,281.2,0.1,99.8,0.1,99.8z"/>
</svg>
