<?xml version="1.0" encoding="utf-8"?>
<!-- Generator: Adobe Illustrator 22.1.0, SVG Export Plug-In . SVG Version: 6.00 Build 0)  -->
<svg version="1.1" id="Camada_1" xmlns="http://www.w3.org/2000/svg" xmlns:xlink="http://www.w3.org/1999/xlink" x="0px" y="0px"
	 viewBox="0 0 321.9 142.6" style="enable-background:new 0 0 321.9 142.6;" xml:space="preserve">
<style type="text/css">
	.st0{fill:#FFFFFF;}
</style>
<title>Ativo 1</title>
<g id="Camada_2_1_">
	<g id="Camada_1-2">
		<path class="st0" d="M164,58.6h-2v8.6h1.9c3.6,0,5.4-1.6,5.4-4.7C169.3,59.9,167.5,58.6,164,58.6z"/>
		<path class="st0" d="M289.4,113.9L289.4,113.9c-0.6-1.4-19.3-45.9-19.9-49.2c-0.6-3.1-1.9-7.2-2.1-13.1c0-0.4,0-0.9,0-1.3
			c-0.7-24.6-21.1-44-45.7-43.3c-11.7,0.3-22.8,5.2-30.9,13.6h-52.2c-8.4-8.7-20-13.6-32.1-13.6c-0.8,0-1.7,0-2.5,0.1
			c-0.3,0-0.6-0.1-1-0.1H55.8c-3.9,0-7.1,3.2-7.1,7.1s3.2,7.1,7.1,7.1h0.7c4.7,0,8.5,3.2,8.5,7.1s-3.8,7.2-8.5,7.2H41
			c-3.9,0-7.1,3.2-7.1,7.1s3.2,7.1,7.1,7.1h0.6c4.7,0,8.5,3.2,8.5,7.1s-3.8,7.1-8.5,7.1H7.1C3.2,63.9,0,67.1,0,71s3.2,7.1,7.1,7.1
			H39c4.7,0,8.5,3.2,8.5,7.1s-3.8,7.2-8.5,7.2h-8.5c-3.9,0-7.1,3.2-7.1,7.1s3.2,7.1,7.1,7.1h-0.1c4.7,0,8.5,3.2,8.5,7.1
			s-3.8,7.1-8.5,7.1h-1.8c-3.9,0-7.1,3.2-7.1,7.1c0,3.9,3.2,7.1,7.1,7.1l0,0h57.7c0.3,0,0.6,0,0.8-0.1c9.4-0.5,18.2-4.4,24.8-11.1
			l0,0c0.2-0.2,1.2-1.3,2.5-2.8c3.1-3.5,8.1-9.2,9.8-11.6c2.2-3.1,6.3-2.7,10-1.8l0,0c0.6,0.2,1.2,0.3,1.8,0.5
			c8.1,1.9,16.5-1.1,21.4-7.8h14.3c4.9,6.7,13.4,9.7,21.4,7.8c0.6-0.2,1.2-0.4,1.8-0.5l0,0c3.6-1,7.8-1.3,10,1.8
			c1.7,2.4,6.7,8.1,9.8,11.6c1.4,1.5,2.3,2.6,2.5,2.8l0,0c7,7.2,16.7,11.2,26.7,11.2c0,0,23.6-1.2,38.2-6.3
			c6.1-1.9,9.5-8.3,7.6-14.4C289.6,114.5,289.5,114.2,289.4,113.9L289.4,113.9z M116.7,88.7H74.6v-9L98,46.4H75.1V34.6h41v9
			L92.7,76.9h24V88.7z M145.2,59.1h-12.3v6h11.4v8.2h-11.4v7.1h12.3v8.3h-22.5V50.8h22.5V59.1z M172.6,88.7l-8-13.8H162v13.8h-10.2
			V50.8h12.4c10.3,0,15.4,3.7,15.4,11.2c0,4.4-2.1,7.8-6.4,10.2l11,16.5H172.6z M210.1,59.1h-12.2v6h11.3v8.2h-11.3v7.1h12.2v8.3
			h-22.4V50.8h22.4V59.1z M229.2,88.7h-12.7V45.1h12.7V88.7z M222.8,36.7c-4.1,0-7.3-3.3-7.4-7.3c0-4.1,3.3-7.3,7.3-7.4
			c4.1,0,7.3,3.3,7.4,7.3l0,0C230.1,33.4,226.9,36.7,222.8,36.7L222.8,36.7z M247.8,59.8c-4.1,0-7.3-3.3-7.3-7.3s3.3-7.3,7.3-7.3
			c4.1,0,7.3,3.3,7.3,7.3S251.9,59.8,247.8,59.8z"/>
	</g>
</g>
<circle class="st0" cx="19.4" cy="42.6" r="7.1"/>
<circle class="st0" cx="9.5" cy="99.3" r="7.1"/>
</svg>
