<svg xmlns="http://www.w3.org/2000/svg" viewBox="0 0 321.87 142.58"><defs><style>.cls-1{fill:#fff;}</style></defs><title>Ativo 1</title><g id="Camada_2" data-name="Camada 2"><g id="Camada_1-2" data-name="Camada 1"><path class="cls-1" d="M181.91,57.21h-2.24V66.8h2.12c4,0,6-1.75,6-5.26C187.74,58.65,185.79,57.21,181.91,57.21Z"/><path class="cls-1" d="M320.88,118.52s0,0,0,0c-.64-1.54-21.35-50.87-22.09-54.56-.69-3.45-2.11-8-2.34-14.5,0-.47,0-1,0-1.45A49.4,49.4,0,0,0,211.47,15.1H153.61A49.24,49.24,0,0,0,118.06,0c-.92,0-1.84,0-2.74.08A7.59,7.59,0,0,0,114.25,0H61.92a7.92,7.92,0,0,0,0,15.84h.82c5.18,0,9.42,3.57,9.42,7.92s-4.24,7.93-9.42,7.93H45.42a7.92,7.92,0,0,0,0,15.84h.63c5.18,0,9.42,3.56,9.42,7.92s-4.24,7.92-9.42,7.92H7.92a7.92,7.92,0,0,0,0,15.84H43.31c5.18,0,9.42,3.57,9.42,7.92s-4.24,7.93-9.42,7.93H33.84a7.92,7.92,0,1,0,0,15.84h-.08c5.18,0,9.42,3.56,9.42,7.92s-4.24,7.92-9.42,7.92h-2a7.92,7.92,0,1,0,0,15.84h64a7.14,7.14,0,0,0,.93-.06,41.48,41.48,0,0,0,27.48-12.34l0,0c.2-.22,1.28-1.43,2.78-3.13,3.42-3.84,8.94-10.16,10.84-12.85,2.43-3.42,7-3,11.06-2,0,0,0,0,0,0,.68.17,1.34.36,2,.56a22.88,22.88,0,0,0,23.74-8.66h15.84a22.88,22.88,0,0,0,23.74,8.66c.64-.2,1.3-.39,2-.56,0,0,0,0,0,0,4-1.06,8.63-1.47,11.06,2,1.9,2.69,7.42,9,10.84,12.85,1.5,1.7,2.58,2.91,2.78,3.13l0,0a41.52,41.52,0,0,0,29.64,12.4s26.21-1.33,42.34-7a12.76,12.76,0,0,0,8-17.11ZM129.43,90.6H82.71v-10l26-36.87H83.33V30.63h45.44v10l-26,36.92h26.62ZM161,57.73H147.4v6.6H160v9.1H147.4v7.92H161V90.6H136.06v-42H161ZM191.44,90.6l-8.9-15.28h-2.87V90.6H168.33v-42h13.75q17.11,0,17.11,12.41,0,7.29-7.12,11.28L204.3,90.6ZM233,57.73H219.46v6.6H232v9.1H219.46v7.92H233V90.6H208.12v-42H233ZM254.2,90.6H240.13V42.28H254.2Zm-7.14-57.7a8.14,8.14,0,1,1,8.13-8.14A8.13,8.13,0,0,1,247.06,32.9Zm27.73,25.66a8.14,8.14,0,1,1,8.14-8.14A8.15,8.15,0,0,1,274.79,58.56Z"/></g></g></svg>